<?xml version="1.0" standalone="no"?>
<!DOCTYPE svg PUBLIC "-//W3C//DTD SVG 20010904//EN"
 "http://www.w3.org/TR/2001/REC-SVG-20010904/DTD/svg10.dtd">
<svg version="1.0" xmlns="http://www.w3.org/2000/svg"
 width="513.000000pt" height="252.000000pt" viewBox="0 0 513.000000 252.000000"
 preserveAspectRatio="xMidYMid meet">

<g transform="translate(0.000000,252.000000) scale(0.100000,-0.100000)"
fill="#000000" stroke="none">
<path d="M2270 2194 c-76 -20 -152 -69 -214 -135 -219 -237 -140 -608 161
-746 51 -24 70 -27 168 -28 122 0 168 12 261 70 125 79 204 234 204 400 -1
298 -289 517 -580 439z m300 -51 c163 -76 250 -215 250 -400 0 -179 -98 -328
-265 -404 -43 -20 -67 -23 -165 -23 -111 -1 -117 1 -181 33 -84 42 -168 126
-211 211 -31 62 -32 70 -33 180 0 112 1 117 36 190 43 88 117 165 199 206 78
39 103 44 210 40 81 -3 105 -8 160 -33z"/>
<path d="M2277 1963 c-10 -10 -8 -58 3 -88 l10 -27 -40 7 -40 7 0 -49 c1 -26
7 -59 15 -73 21 -36 19 -38 -22 -42 -36 -3 -38 -5 -41 -40 -8 -91 54 -179 135
-194 21 -3 48 -13 61 -20 22 -14 22 -14 22 34 0 62 -28 96 -88 105 -29 5 -52
18 -77 42 -57 58 -41 76 46 51 60 -18 104 -50 118 -87 l9 -24 18 31 c23 40 67
69 127 83 55 13 67 9 60 -19 -8 -30 -61 -67 -115 -80 -57 -15 -63 -21 -76 -85
-12 -59 -8 -71 21 -52 12 8 39 17 60 20 83 13 137 85 137 182 l0 55 -40 0
c-22 0 -40 2 -40 3 0 2 8 19 17 38 9 18 17 51 17 74 l1 40 -43 -3 c-42 -3 -42
-3 -32 23 14 38 12 85 -4 91 -20 8 -70 -21 -91 -52 l-17 -26 -18 28 c-27 40
-76 65 -93 47z m55 -25 c40 -33 64 -107 39 -123 -5 -3 -25 10 -45 29 -28 26
-36 41 -36 70 0 38 14 46 42 24z m161 -8 c7 -27 -23 -82 -55 -100 -34 -19 -42
-10 -34 36 12 62 77 110 89 64z m-209 -105 c44 -18 96 -87 96 -127 0 -74 -130
1 -148 85 -13 62 -8 67 52 42z m272 0 c18 -46 -57 -141 -119 -152 -33 -5 -37
-3 -37 16 0 53 42 113 98 138 37 16 52 16 58 -2z m-176 -35 c0 -5 -2 -10 -4
-10 -3 0 -8 5 -11 10 -3 6 -1 10 4 10 6 0 11 -4 11 -10z m40 6 c0 -3 -4 -8
-10 -11 -5 -3 -10 -1 -10 4 0 6 5 11 10 11 6 0 10 -2 10 -4z m-16 -167 c-16
-18 -18 -18 -30 -1 -15 20 -2 32 28 25 18 -5 18 -7 2 -24z"/>
<path d="M2742 939 c-23 -12 -51 -33 -61 -48 -72 -102 -41 -255 62 -302 69
-31 137 -19 184 32 24 27 41 79 25 79 -6 0 -13 -13 -17 -30 -9 -40 -58 -80
-99 -80 -70 0 -106 59 -106 175 0 114 36 175 102 175 38 0 85 -48 94 -96 3
-19 11 -34 18 -34 8 0 10 22 8 73 -2 39 -6 74 -8 76 -2 3 -10 -3 -17 -13 -11
-16 -15 -16 -49 -1 -50 20 -85 19 -136 -6z"/>
<path d="M3058 953 c-41 -5 -50 -18 -18 -26 19 -5 20 -14 20 -166 0 -154 -1
-161 -20 -161 -11 0 -20 -4 -20 -10 0 -6 30 -10 70 -10 40 0 70 4 70 10 0 6
-7 10 -15 10 -12 0 -15 15 -15 73 0 79 15 107 56 107 35 0 44 -21 44 -98 0
-65 -2 -74 -20 -79 -43 -11 -17 -23 50 -23 67 0 93 12 50 23 -18 5 -20 14 -20
91 0 73 -3 89 -20 106 -28 28 -72 25 -109 -6 l-31 -26 0 96 c0 85 -2 96 -17
94 -10 -1 -35 -3 -55 -5z"/>
<path d="M3978 953 c-41 -5 -50 -18 -18 -26 19 -5 20 -14 20 -162 0 -148 -1
-157 -20 -162 -43 -11 -17 -23 50 -23 67 0 93 12 50 23 -25 6 -28 58 -4 78 14
12 20 9 45 -21 32 -38 37 -60 14 -60 -8 0 -15 -4 -15 -10 0 -6 32 -10 75 -10
43 0 75 4 75 10 0 6 -6 10 -14 10 -13 0 -91 94 -102 124 -6 16 38 54 73 62 46
12 22 24 -47 24 -67 0 -93 -12 -50 -23 11 -3 20 -10 20 -15 0 -10 -72 -72 -84
-72 -3 0 -6 59 -6 130 0 98 -3 130 -12 128 -7 -1 -30 -3 -50 -5z"/>
<path d="M580 941 c0 -5 12 -11 28 -13 l27 -3 0 -160 0 -160 -27 -3 c-16 -2
-28 -8 -28 -13 0 -5 45 -9 100 -9 60 0 100 4 100 10 0 6 -13 10 -29 10 -35 0
-41 13 -41 89 l0 58 68 5 c77 6 114 25 132 68 16 37 3 77 -34 104 -24 18 -45
21 -162 24 -86 2 -134 0 -134 -7z m234 -24 c9 -7 20 -31 23 -54 7 -56 -27 -93
-87 -93 l-40 0 0 73 c0 41 3 77 7 80 11 12 78 8 97 -6z"/>
<path d="M998 813 c-39 -4 -54 -23 -18 -23 25 0 32 -27 28 -115 -3 -64 -5 -70
-25 -73 -13 -2 -23 -8 -23 -13 0 -5 36 -9 80 -9 44 0 80 4 80 9 0 5 -10 11
-22 13 -21 3 -23 8 -22 71 0 51 6 74 20 94 26 34 49 43 40 16 -9 -28 18 -50
39 -33 36 30 -1 78 -51 66 -14 -4 -33 -21 -44 -39 l-20 -32 0 38 c0 24 -4 36
-12 35 -7 -1 -30 -3 -50 -5z"/>
<path d="M1290 802 c-73 -36 -89 -135 -31 -193 85 -85 241 -17 228 99 -10 91
-109 138 -197 94z m104 -24 c10 -14 16 -44 16 -83 0 -70 -19 -105 -55 -105
-36 0 -55 35 -55 105 0 70 19 105 55 105 13 0 31 -10 39 -22z"/>
<path d="M1614 806 c-106 -48 -97 -211 13 -232 47 -9 107 10 132 42 30 38 14
50 -19 14 -57 -61 -130 -24 -130 66 0 56 17 93 47 100 37 10 53 -2 51 -37 -4
-38 22 -60 46 -40 22 18 20 54 -4 76 -25 23 -97 29 -136 11z"/>
<path d="M1884 805 c-90 -46 -83 -194 11 -225 47 -16 101 -7 131 21 37 34 30
56 -7 25 -40 -34 -81 -34 -108 0 -12 15 -21 35 -21 45 0 17 9 19 80 19 l80 0
0 30 c0 71 -96 121 -166 85z m96 -24 c5 -11 10 -31 10 -45 0 -25 -3 -26 -51
-26 l-51 0 6 32 c3 17 11 37 17 45 17 19 57 16 69 -6z"/>
<path d="M2146 799 c-20 -16 -26 -29 -26 -59 0 -47 18 -62 97 -80 56 -13 71
-31 47 -55 -27 -26 -82 -19 -114 15 -15 17 -31 30 -34 30 -3 0 -6 -18 -6 -40
0 -28 4 -40 14 -40 8 0 16 5 18 10 2 7 14 7 36 -1 67 -23 132 10 132 68 0 45
-27 69 -95 83 -58 12 -76 30 -55 55 21 26 69 18 100 -15 15 -16 31 -30 34 -30
3 0 6 18 6 40 0 41 -7 49 -27 29 -8 -8 -17 -8 -31 0 -31 17 -67 13 -96 -10z"/>
<path d="M2406 799 c-20 -16 -26 -29 -26 -59 0 -47 18 -62 97 -80 56 -13 71
-31 47 -55 -27 -26 -82 -19 -114 15 -15 17 -31 30 -34 30 -3 0 -6 -18 -6 -40
0 -28 4 -40 14 -40 8 0 16 5 18 10 2 7 14 7 36 -1 67 -23 132 10 132 68 0 45
-27 69 -95 83 -58 12 -76 30 -55 55 21 26 69 18 100 -15 15 -16 31 -30 34 -30
3 0 6 18 6 40 0 41 -7 49 -27 29 -8 -8 -17 -8 -31 0 -31 17 -67 13 -96 -10z"/>
<path d="M3444 805 c-90 -46 -83 -194 11 -225 47 -16 101 -7 131 21 37 34 30
56 -7 25 -40 -34 -81 -34 -108 0 -12 15 -21 35 -21 45 0 17 9 19 80 19 l80 0
0 30 c0 71 -96 121 -166 85z m96 -24 c5 -11 10 -31 10 -45 0 -25 -3 -26 -51
-26 l-51 0 6 32 c3 17 11 37 17 45 17 19 57 16 69 -6z"/>
<path d="M3744 806 c-106 -48 -97 -211 13 -232 47 -9 107 10 132 42 30 38 14
50 -19 14 -57 -61 -130 -24 -130 66 0 56 17 93 47 100 37 10 53 -2 51 -37 -4
-38 22 -60 46 -40 22 18 20 54 -4 76 -25 23 -97 29 -136 11z"/>
</g>
</svg>
